<svg width="759" height="313" viewBox="0 0 759 313" fill="none" xmlns="http://www.w3.org/2000/svg">
<path d="M32.6 249.899L0 217.099L112.1 105.699L144 138.399L32.6 249.899Z" fill="#132E50"/>
<path d="M152.7 155L184.4 122.4L296.2 233.8L263.9 266.2C226.7 229 189.6 191.8 152.7 155Z" fill="#98B1CB"/>
<path d="M139.2 169.5L170.7 201L79.1996 292.4L45.5996 261L139.2 169.5Z" fill="#DD0957"/>
<path d="M151.7 248.001L184.8 213.801L250.7 277.601L216.9 312.401L151.7 248.001Z" fill="#3E9AD5"/>
<path d="M227.2 14.4004L260 47.3004L199.4 107.3L167.1 74.9004C187 54.9004 207 34.7004 227.2 14.4004Z" fill="#DD0957"/>
<path d="M158.1 60.5L125.8 92.8L65.2998 32.9L97.8998 0L158.1 60.5Z" fill="#3E9AD5"/>
<path d="M242.3 150.799L209.4 119.499L255.1 72.6992L287.5 105.099C272.6 120.199 257.5 135.399 242.3 150.799Z" fill="#132E50"/>
<path d="M52.2 46.4004L97.7 92.9004L65 124.1L20 78.6004L52.2 46.4004Z" fill="#98B1CB"/>
<path d="M358.9 99.1008V100.601H335.6V99.1008H337.6C339.8 99.1008 341.5 98.5008 342.5 97.1008C343.1 96.2008 343.5 94.2008 343.5 90.9008V55.9008C343.6 54.1008 343.4 52.2008 343 50.5008C342.7 49.8008 342.1 49.2008 341.4 48.8008C340.3 48.2008 339 47.8008 337.7 47.8008H335.7V46.3008H359V47.8008H357C354.8 47.8008 353.2 48.4008 352.2 49.8008C351.5 50.6008 351.2 52.7008 351.2 56.0008V91.0008C351.1 92.8008 351.3 94.7008 351.7 96.4008C352 97.2008 352.7 97.8008 353.4 98.2008C354.5 98.8008 355.8 99.2008 357 99.2008L358.9 99.1008Z" fill="#6D6E71"/>
<path d="M374.8 70.6008C379.1 65.4008 383.2 62.8008 387.1 62.8008C388.9 62.8008 390.7 63.3008 392.3 64.3008C393.9 65.6008 395.1 67.3008 395.8 69.3008C396.5 71.7008 396.8 74.2008 396.7 76.7008V92.3008C396.6 93.9008 396.8 95.5008 397.3 97.0008C397.6 97.6008 398.1 98.2008 398.7 98.5008C399.8 99.0008 401.1 99.2008 402.3 99.1008V100.501H384V99.1008H384.8C386 99.2008 387.3 98.9008 388.4 98.3008C389.1 97.7008 389.6 96.9008 389.8 96.0008C390 94.7008 390 93.5008 390 92.2008V77.2008C390 73.9008 389.6 71.4008 388.7 69.9008C387.8 68.4008 386.1 67.5008 384.3 67.6008C381.1 67.6008 378 69.3008 374.8 72.8008V92.1008C374.8 94.6008 374.9 96.1008 375.2 96.7008C375.5 97.4008 376.1 98.0008 376.7 98.4008C378 98.9008 379.3 99.0008 380.7 98.9008V100.301H362.5V98.9008H363.3C365.2 98.9008 366.4 98.4008 367.1 97.5008C367.8 96.6008 368.1 94.7008 368.1 92.1008V78.7008C368.2 76.0008 368.1 73.3008 367.8 70.6008C367.7 69.9008 367.4 69.1008 366.9 68.6008C366.4 68.2008 365.8 68.0008 365.2 68.1008C364.3 68.1008 363.4 68.3008 362.5 68.7008L361.9 67.3008L372.9 62.8008H374.6L374.8 70.6008Z" fill="#6D6E71"/>
<path d="M416.4 51.9008V64.0008H425V66.8008H416.4V90.6008C416.4 93.0008 416.7 94.6008 417.4 95.4008C418 96.2008 419 96.7008 420 96.6008C420.9 96.6008 421.8 96.3008 422.6 95.8008C423.5 95.2008 424.1 94.4008 424.5 93.4008H426.1C425.4 95.7008 424 97.8008 422.1 99.3008C420.6 100.501 418.7 101.301 416.8 101.301C415.5 101.301 414.3 100.901 413.2 100.301C412 99.6008 411.1 98.6008 410.6 97.4008C409.9 95.5008 409.6 93.5008 409.7 91.5008V66.7008H403.9V65.4008C405.6 64.7008 407.1 63.7008 408.4 62.4008C410 60.9008 411.4 59.2008 412.5 57.4008C413.5 55.6008 414.3 53.7008 415.1 51.8008L416.4 51.9008Z" fill="#6D6E71"/>
<path d="M435.4 77.7C435.4 83.1 436.7 87.4 439.4 90.5C441.7 93.4 445.1 95.1 448.8 95.1C451.1 95.1 453.3 94.4 455.1 93.1C456.9 91.8 458.4 89.5 459.6 86.3L460.8 87.1C460.2 90.8 458.5 94.3 455.9 97.1C453.4 100 449.6 101.7 445.8 101.6C441.5 101.6 437.3 99.8 434.5 96.5C431.4 93.1 429.8 88.5 429.8 82.7C429.8 76.4 431.4 71.5 434.6 68C437.7 64.6 442.1 62.7 446.6 62.7C450.4 62.6 454.1 64.1 456.7 66.8C459.4 69.5 460.7 73.1 460.7 77.7H435.4ZM435.4 75.4H452.4C452.4 73.7 452.1 72 451.6 70.4C451 69 449.9 67.7 448.6 66.9C447.4 66.1 445.9 65.6 444.5 65.6C442.3 65.6 440.1 66.5 438.6 68.2C436.6 70.1 435.5 72.7 435.4 75.4Z" fill="#6D6E71"/>
<path d="M477 62.8008V71.0008C480.1 65.5008 483.2 62.8008 486.5 62.8008C487.8 62.8008 489.1 63.2008 490.1 64.1008C491 64.9008 491.5 66.0008 491.6 67.2008C491.6 68.2008 491.2 69.1008 490.6 69.8008C490 70.5008 489.1 70.9008 488.1 70.9008C486.9 70.8008 485.8 70.3008 485 69.5008C484.3 68.8008 483.4 68.3008 482.4 68.1008C481.8 68.2008 481.2 68.4008 480.8 68.9008C479.3 70.5008 478 72.3008 477.1 74.3008V92.0008C477 93.6008 477.3 95.1008 477.9 96.6008C478.3 97.4008 479 98.0008 479.7 98.4008C480.9 98.9008 482.2 99.2008 483.5 99.1008V100.501H464.7V99.1008C466.1 99.2008 467.6 98.9008 468.9 98.2008C469.6 97.7008 470.1 97.0008 470.3 96.2008C470.5 94.9008 470.6 93.6008 470.5 92.3008V78.1008C470.6 75.6008 470.5 73.0008 470.2 70.5008C470.1 69.8008 469.7 69.2008 469.2 68.7008C468.7 68.3008 468.1 68.1008 467.5 68.1008C466.5 68.1008 465.6 68.3008 464.7 68.7008L464.3 67.3008L475.4 62.8008H477Z" fill="#6D6E71"/>
<path d="M504.9 70.6008C509.2 65.4008 513.3 62.8008 517.2 62.8008C519 62.8008 520.8 63.3008 522.4 64.3008C524 65.6008 525.2 67.3008 525.8 69.3008C526.5 71.7008 526.8 74.2008 526.7 76.7008V92.3008C526.6 93.9008 526.8 95.5008 527.3 97.0008C527.6 97.7008 528.1 98.2008 528.7 98.6008C529.8 99.1008 531.1 99.3008 532.3 99.2008V100.601H514.2V99.2008H515C516.2 99.3008 517.5 99.0008 518.6 98.4008C519.3 97.8008 519.8 97.0008 520 96.1008C520.2 94.8008 520.2 93.6008 520.2 92.3008V77.3008C520.2 74.0008 519.8 71.5008 518.9 70.0008C518 68.5008 516.3 67.6008 514.5 67.7008C511.3 67.7008 508.2 69.4008 505 72.9008V92.2008C504.9 93.8008 505 95.3008 505.4 96.8008C505.7 97.5008 506.3 98.1008 506.9 98.5008C508.2 99.0008 509.5 99.1008 510.9 99.0008V100.401H492.7V99.0008H493.5C495.4 99.0008 496.6 98.5008 497.3 97.6008C498 96.7008 498.3 94.8008 498.3 92.2008V78.7008C498.4 76.0008 498.3 73.3008 498 70.6008C497.9 69.9008 497.6 69.1008 497.1 68.6008C496.6 68.2008 496 68.0008 495.4 68.1008C494.5 68.1008 493.6 68.3008 492.7 68.7008L492.1 67.3008L503.1 62.8008H504.8L504.9 70.6008Z" fill="#6D6E71"/>
<path d="M556.6 95.2995C554.4 97.0995 552 98.7995 549.5 100.299C548.1 100.999 546.5 101.299 544.9 101.299C542.5 101.399 540.3 100.399 538.6 98.6995C536.9 96.7995 536 94.3995 536.1 91.7995C536.1 90.1995 536.5 88.5995 537.3 87.1995C538.8 84.9995 540.7 83.2995 543 82.0995C547.3 79.7995 551.9 77.7995 556.5 76.2995V74.8995C556.5 71.2995 555.9 68.6995 554.8 67.3995C553.5 65.9995 551.6 65.2995 549.7 65.3995C548.2 65.2995 546.8 65.7995 545.7 66.7995C544.8 67.5995 544.2 68.6995 544.2 69.8995L544.3 72.1995C544.4 73.1995 544 74.2995 543.4 74.9995C542.8 75.6995 541.9 75.9995 540.9 75.9995C540 75.9995 539.1 75.5995 538.5 74.8995C537.8 74.0995 537.5 73.0995 537.6 72.0995C537.6 69.7995 538.8 67.6995 541.1 65.7995C543.4 63.8995 546.7 62.8995 551 62.8995C553.8 62.7995 556.5 63.3995 559 64.4995C560.6 65.2995 561.8 66.6995 562.5 68.3995C563 69.4995 563.2 71.8995 563.2 75.4995V87.8995C563.1 89.9995 563.2 92.1995 563.4 94.2995C563.4 94.8995 563.7 95.3995 564.1 95.8995C564.4 96.1995 564.8 96.2995 565.2 96.2995C565.6 96.2995 566 96.1995 566.3 95.9995C567.5 95.0995 568.5 94.0995 569.5 93.0995V95.2995C566.5 99.2995 563.7 101.299 560.9 101.299C559.7 101.399 558.6 100.899 557.8 99.8995C557.1 98.9995 556.7 97.4995 556.6 95.2995ZM556.6 92.6995V78.6995C553.9 79.6995 551.3 80.7995 548.8 82.0995C547 82.9995 545.5 84.1995 544.3 85.7995C543.4 86.9995 542.9 88.4995 542.9 89.9995C542.8 91.7995 543.5 93.4995 544.6 94.7995C545.6 95.9995 547 96.6995 548.6 96.6995C550.7 96.6995 553.3 95.3995 556.6 92.6995Z" fill="#6D6E71"/>
<path d="M583.6 51.9008V64.0008H592.2V66.8008H583.6V90.6008C583.6 93.0008 583.9 94.6008 584.6 95.4008C585.2 96.2008 586.2 96.7008 587.2 96.6008C588.1 96.6008 589 96.3008 589.8 95.8008C590.7 95.2008 591.3 94.4008 591.7 93.4008H593.3C592.6 95.7008 591.2 97.8008 589.3 99.3008C587.8 100.501 585.9 101.301 584 101.301C582.7 101.301 581.5 100.901 580.4 100.301C579.2 99.6008 578.3 98.6008 577.8 97.4008C577.1 95.5008 576.8 93.5008 577 91.5008V66.7008H571.2V65.4008C572.9 64.7008 574.4 63.7008 575.7 62.4008C577.3 60.9008 578.7 59.2008 579.8 57.4008C580.8 55.6008 581.6 53.7008 582.4 51.8008L583.6 51.9008Z" fill="#6D6E71"/>
<path d="M609 62.7996V92.2996C608.9 93.7996 609.1 95.3996 609.5 96.8996C609.8 97.5996 610.3 98.1996 611 98.5996C612.1 99.0996 613.4 99.2996 614.6 99.1996V100.6H596.8V99.1996C598 99.2996 599.3 99.0996 600.4 98.6996C601.1 98.2996 601.6 97.6996 601.9 96.9996C602.4 95.4996 602.6 93.8996 602.4 92.3996V78.1996C602.5 75.5996 602.4 72.9996 602 70.4996C601.9 69.7996 601.6 69.1996 601.1 68.6996C600.6 68.2996 600 68.1996 599.5 68.1996C598.6 68.1996 597.6 68.3996 596.8 68.7996L596.2 67.3996L607.2 62.8996L609 62.7996ZM605.7 43.5996C607.9 43.5996 609.7 45.3996 609.7 47.5996C609.7 48.6996 609.3 49.6996 608.5 50.4996C607.8 51.2996 606.7 51.6996 605.6 51.6996C603.3 51.6996 601.5 49.8996 601.5 47.5996C601.5 46.4996 601.9 45.4996 602.7 44.6996C603.5 43.9996 604.6 43.5996 605.7 43.5996Z" fill="#6D6E71"/>
<path d="M637.7 62.8006C642.9 62.6006 647.9 65.0006 651.1 69.2006C653.9 72.7006 655.4 77.1006 655.4 81.6006C655.4 85.1006 654.6 88.5006 653 91.6006C650.3 97.9006 644.1 101.901 637.3 101.801C632.1 102.001 627.1 99.5006 624.1 95.2006C621.4 91.6006 619.9 87.2006 620 82.7006C620 79.2006 620.9 75.8006 622.5 72.7006C625.2 66.7006 631.2 62.9006 637.7 62.8006ZM636.5 65.4006C635 65.4006 633.5 65.9006 632.2 66.7006C630.6 67.8006 629.4 69.3006 628.7 71.1006C627.7 73.7006 627.3 76.5006 627.4 79.2006C627.3 84.0006 628.4 88.8006 630.6 93.0006C632.7 96.9006 635.5 98.8007 639 98.8007C641.5 98.8007 643.9 97.6006 645.4 95.6006C647.1 93.5006 647.9 89.8006 647.9 84.6006C647.9 78.1006 646.5 73.0006 643.7 69.2006C642.1 66.9006 639.4 65.4006 636.5 65.4006Z" fill="#6D6E71"/>
<path d="M672.1 70.6008C676.4 65.4008 680.5 62.8008 684.4 62.8008C686.2 62.8008 688 63.3008 689.6 64.3008C691.2 65.6008 692.4 67.3008 693 69.3008C693.7 71.7008 694 74.2008 693.9 76.7008V92.3008C693.8 93.9008 694 95.5008 694.5 97.0008C694.8 97.7008 695.3 98.2008 695.9 98.6008C697.1 99.1008 698.3 99.3008 699.6 99.2008V100.601H681.4V99.2008H682.2C683.4 99.3008 684.7 99.0008 685.8 98.4008C686.5 97.8008 687 97.0008 687.2 96.1008C687.4 94.8008 687.4 93.6008 687.4 92.3008V77.3008C687.4 74.0008 687 71.5008 686.1 70.0008C685.2 68.5008 683.5 67.6008 681.7 67.7008C678.5 67.7008 675.4 69.4008 672.2 72.9008V92.2008C672.1 93.8008 672.2 95.3008 672.6 96.8008C672.9 97.5008 673.5 98.1008 674.1 98.5008C675.4 99.0008 676.7 99.1008 678.1 99.0008V100.401H660V99.0008H660.8C662.7 99.0008 663.9 98.5008 664.6 97.6008C665.3 96.7008 665.6 94.8008 665.6 92.2008V78.7008C665.7 76.0008 665.6 73.3008 665.3 70.6008C665.2 69.9008 664.9 69.1008 664.4 68.6008C663.9 68.2008 663.3 68.0008 662.7 68.1008C661.8 68.1008 660.9 68.3008 660 68.7008L659.4 67.3008L670.4 62.8008H672.1V70.6008Z" fill="#6D6E71"/>
<path d="M723.9 95.2995C721.7 97.0995 719.3 98.7995 716.8 100.299C715.4 100.999 713.8 101.299 712.2 101.299C709.8 101.399 707.6 100.399 705.9 98.6995C704.2 96.7995 703.3 94.3995 703.4 91.7995C703.4 90.1995 703.8 88.5995 704.6 87.1995C706.1 84.9995 708 83.2995 710.3 82.0995C714.6 79.7995 719.2 77.7995 723.8 76.2995V74.8995C723.8 71.2995 723.2 68.6995 722.1 67.3995C720.8 65.9995 718.9 65.2995 717 65.3995C715.5 65.2995 714.1 65.7995 713 66.7995C712.1 67.5995 711.5 68.6995 711.5 69.8995L711.6 72.1995C711.7 73.1995 711.3 74.2995 710.7 74.9995C710.1 75.6995 709.2 75.9995 708.2 75.9995C707.3 75.9995 706.4 75.5995 705.8 74.8995C705.1 74.0995 704.8 73.0995 704.9 72.0995C704.9 69.7995 706.1 67.6995 708.4 65.7995C710.7 63.8995 714 62.8995 718.3 62.8995C721.1 62.7995 723.8 63.3995 726.3 64.4995C727.9 65.2995 729.1 66.6995 729.8 68.3995C730.3 69.4995 730.5 71.8995 730.5 75.4995V87.8995C730.4 89.9995 730.5 92.1995 730.7 94.2995C730.7 94.8995 731 95.3995 731.4 95.8995C731.7 96.1995 732.1 96.2995 732.5 96.2995C732.9 96.2995 733.3 96.1995 733.6 95.9995C734.8 95.0995 735.8 94.0995 736.8 93.0995V95.2995C733.8 99.2995 731 101.299 728.2 101.299C727 101.299 725.9 100.799 725.1 99.8995C724.3 98.9995 723.9 97.4995 723.9 95.2995ZM723.9 92.6995V78.6995C721.2 79.6995 718.6 80.7995 716.1 82.0995C714.3 82.9995 712.8 84.1995 711.6 85.7995C710.7 86.9995 710.2 88.4995 710.2 89.9995C710.1 91.7995 710.8 93.4995 711.9 94.7995C712.9 95.9995 714.3 96.6995 715.9 96.6995C717.9 96.6995 720.6 95.3995 723.9 92.6995Z" fill="#6D6E71"/>
<path d="M752.8 43.6992V92.3992C752.7 93.8992 752.9 95.4992 753.3 96.9992C753.6 97.6992 754.2 98.2992 754.8 98.6992C756 99.1992 757.4 99.3992 758.7 99.2992V100.699H740.7V99.2992C741.9 99.3992 743 99.1992 744.1 98.7992C744.8 98.3992 745.3 97.7992 745.6 97.0992C746 95.5992 746.2 93.9992 746.1 92.4992V58.9992C746.2 56.4992 746.1 53.8992 745.8 51.3992C745.7 50.6992 745.4 49.9992 744.9 49.4992C744.4 49.0992 743.9 48.9992 743.3 48.9992C742.4 48.9992 741.5 49.2992 740.7 49.5992L740 48.1992L750.9 43.6992H752.8Z" fill="#6D6E71"/>
<path d="M381 130.301L381.6 143.001H380.1C380 141.301 379.5 139.701 378.9 138.201C378.2 136.801 377 135.601 375.6 134.801C373.9 134.001 372 133.601 370.2 133.701H362.6V175.201C362.6 178.501 363 180.601 363.7 181.401C364.9 182.601 366.7 183.201 368.4 183.101H370.3V184.601H347.3V183.101H349.2C351.5 183.101 353.1 182.401 354.1 181.001C354.7 180.101 355 178.201 355 175.101V133.601H348.5C346.7 133.501 344.9 133.701 343.1 134.201C341.6 134.801 340.4 135.801 339.5 137.101C338.4 138.901 337.8 140.901 337.7 143.001H336.2L336.8 130.301H381Z" fill="#6D6E71"/>
<path d="M394.7 146.799V154.999C397.8 149.499 400.9 146.799 404.1 146.799C405.4 146.799 406.8 147.199 407.7 148.099C408.6 148.899 409.1 149.999 409.1 151.199C409.1 152.199 408.8 153.099 408.1 153.799C407.5 154.499 406.6 154.899 405.6 154.899C404.4 154.799 403.3 154.299 402.5 153.499C401.8 152.799 400.9 152.299 399.9 152.099C399.3 152.199 398.7 152.399 398.3 152.899C396.8 154.499 395.5 156.299 394.6 158.299V175.999C394.5 177.599 394.8 179.099 395.4 180.599C395.8 181.399 396.4 181.999 397.2 182.399C398.4 182.899 399.7 183.199 401 183.099V184.499H382.2V183.099C383.6 183.199 385.1 182.899 386.4 182.199C387.1 181.699 387.6 180.999 387.8 180.199C388 178.899 388.1 177.599 388 176.299V161.999C388.1 159.499 388 156.899 387.7 154.399C387.6 153.699 387.2 153.099 386.7 152.599C386.2 152.199 385.6 151.999 385 151.999C384 151.999 383.1 152.199 382.2 152.599L381.8 151.199L392.9 146.699H394.7V146.799Z" fill="#6D6E71"/>
<path d="M432.7 179.3C430.5 181.1 428.1 182.8 425.6 184.3C424.2 185 422.6 185.3 421 185.3C418.6 185.4 416.4 184.4 414.7 182.7C413 180.8 412.1 178.4 412.2 175.8C412.2 174.2 412.6 172.6 413.4 171.2C414.8 169 416.8 167.3 419.1 166.1C423.4 163.8 428 161.8 432.6 160.3V158.8C432.6 155.2 432 152.6 430.9 151.3C429.6 149.9 427.7 149.2 425.8 149.3C424.3 149.2 422.9 149.7 421.8 150.7C420.9 151.5 420.3 152.6 420.3 153.8L420.4 156.1C420.5 157.1 420.1 158.2 419.4 158.9C418.8 159.6 417.9 159.9 416.9 159.9C416 159.9 415.1 159.6 414.5 158.9C413.8 158.1 413.5 157.1 413.6 156C413.6 153.7 414.8 151.6 417.1 149.7C419.4 147.8 422.7 146.8 427 146.8C429.8 146.7 432.5 147.3 435 148.4C436.6 149.2 437.8 150.6 438.5 152.3C439 153.4 439.2 155.8 439.2 159.3V171.8C439.1 173.9 439.2 176.1 439.4 178.2C439.4 178.8 439.7 179.3 440.1 179.8C440.4 180.1 440.8 180.2 441.2 180.2C441.6 180.2 442 180.1 442.3 179.9C443.5 179 444.5 178 445.5 177V179.2C442.5 183.2 439.6 185.2 436.9 185.2C435.7 185.3 434.6 184.8 433.8 183.8C433.2 183 432.8 181.5 432.7 179.3ZM432.7 176.7V162.7C430 163.7 427.4 164.8 424.9 166.1C423.1 167 421.6 168.2 420.4 169.8C419.5 171 419 172.5 419 174C418.9 175.8 419.6 177.5 420.7 178.8C421.7 180 423.2 180.7 424.7 180.7C426.8 180.7 429.4 179.4 432.7 176.7Z" fill="#6D6E71"/>
<path d="M474.9 180.499C473.4 182.099 471.6 183.499 469.7 184.499C468 185.299 466.1 185.699 464.2 185.699C460.1 185.699 456.3 183.799 453.7 180.699C450.7 177.399 449.2 173.099 449.2 167.799C449.2 162.599 451 157.499 454.2 153.399C457.1 149.199 461.9 146.799 467 146.899C470 146.799 472.9 147.899 475 149.999V143.199C475.1 140.599 475 137.999 474.7 135.499C474.6 134.699 474.3 133.999 473.8 133.499C473.3 133.099 472.8 132.999 472.2 132.999C471.3 133.099 470.3 133.299 469.4 133.599L468.9 132.199L479.8 127.699H481.6V169.999C481.5 172.599 481.6 175.299 481.9 177.899C482 178.699 482.4 179.399 482.9 179.899C483.3 180.299 483.9 180.499 484.4 180.499C485.4 180.399 486.4 180.199 487.3 179.799L487.7 181.199L476.8 185.699H475L474.9 180.499ZM474.9 177.699V158.799C474.8 157.099 474.3 155.399 473.5 153.799C472.8 152.399 471.7 151.199 470.3 150.399C469.1 149.699 467.8 149.299 466.4 149.299C463.9 149.399 461.6 150.499 460.1 152.499C457.7 155.299 456.5 159.299 456.5 164.699C456.5 170.099 457.7 174.199 460 177.099C462.4 179.999 465 181.399 467.9 181.399C470.3 181.299 472.6 180.099 474.9 177.699Z" fill="#6D6E71"/>
<path d="M496.8 161.7C496.8 167.1 498.1 171.4 500.8 174.5C503.1 177.4 506.5 179.1 510.2 179.1C512.5 179.1 514.7 178.4 516.5 177.1C518.3 175.8 519.8 173.5 521 170.3L522.2 171.1C521.6 174.8 519.9 178.3 517.3 181.1C514.8 184 511 185.7 507.2 185.6C502.9 185.6 498.7 183.7 495.9 180.5C492.8 177.1 491.2 172.5 491.2 166.7C491.2 160.4 492.8 155.5 496 152C499.1 148.6 503.5 146.6 508.1 146.7C511.9 146.6 515.6 148.1 518.2 150.8C520.9 153.5 522.2 157.1 522.2 161.7H496.8ZM496.8 159.4H513.8C513.8 157.7 513.5 156 513 154.4C512.4 153 511.3 151.7 510 150.9C508.8 150.1 507.3 149.6 505.9 149.6C503.6 149.6 501.5 150.5 499.9 152.2C498 154.1 497 156.7 496.8 159.4Z" fill="#6D6E71"/>
<path d="M382.9 213.1L384.1 231.6H382.9C381.2 226.1 378.9 222.1 375.8 219.7C372.7 217.3 368.8 216 364.8 216.1C361.3 216.1 358 217 355 218.8C351.9 220.9 349.4 224 348.1 227.6C346.3 232.4 345.5 237.4 345.6 242.5C345.5 246.9 346.3 251.3 347.9 255.3C349.3 258.7 351.8 261.6 355 263.6C358.3 265.6 362 266.6 365.8 266.5C369.1 266.6 372.3 265.8 375.1 264.2C377.8 262.7 380.7 259.7 384 255.2L385.2 256C382.5 260.8 379.3 264.4 375.7 266.6C371.8 268.9 367.3 270.1 362.8 270C353.8 270 346.8 266.7 341.9 260C338.2 254.9 336.2 248.7 336.4 242.4C336.4 237.2 337.6 232.1 340 227.5C342.3 223.1 345.7 219.5 350 217C354.2 214.5 359 213.2 364 213.3C368 213.3 372 214.3 375.6 216.2C376.3 216.7 377.1 217 378 217.1C378.7 217.1 379.4 216.8 379.9 216.3C380.7 215.5 381.2 214.4 381.4 213.3L382.9 213.1Z" fill="#6D6E71"/>
<path d="M397.6 245.7C397.6 251.1 398.9 255.4 401.6 258.5C403.9 261.4 407.3 263.1 411 263.1C413.3 263.1 415.5 262.4 417.3 261.1C419.1 259.8 420.6 257.5 421.8 254.3L423 255.1C422.4 258.8 420.7 262.3 418.1 265.1C415.6 268 411.8 269.7 408 269.6C403.7 269.6 399.5 267.8 396.7 264.5C393.6 261.1 392 256.5 392 250.7C392 244.4 393.6 239.5 396.8 236C399.9 232.6 404.3 230.6 408.9 230.7C412.7 230.6 416.4 232.1 419 234.8C421.7 237.5 423 241.1 423 245.7H397.6ZM397.6 243.4H414.6C414.6 241.7 414.3 240 413.8 238.4C413.2 237 412.1 235.7 410.8 234.9C409.6 234.1 408.1 233.6 406.7 233.6C404.4 233.6 402.3 234.5 400.7 236.2C398.9 238.1 397.8 240.7 397.6 243.4Z" fill="#6D6E71"/>
<path d="M439.2 238.599C443.5 233.399 447.6 230.799 451.5 230.799C453.3 230.799 455.1 231.299 456.7 232.299C458.3 233.599 459.5 235.299 460.1 237.299C460.8 239.699 461.1 242.199 461 244.699V260.299C460.9 261.899 461.1 263.499 461.6 264.999C461.9 265.699 462.4 266.199 463 266.599C464.1 267.099 465.4 267.299 466.6 267.199V268.599H448.5V267.199H449.3C450.5 267.299 451.8 266.999 452.9 266.399C453.6 265.799 454.1 264.999 454.3 264.099C454.5 262.799 454.5 261.599 454.5 260.299V245.299C454.5 241.999 454.1 239.499 453.2 237.999C452.3 236.499 450.6 235.599 448.8 235.699C445.6 235.699 442.5 237.399 439.3 240.899V260.199C439.2 261.799 439.3 263.299 439.7 264.799C440 265.499 440.6 266.099 441.2 266.499C442.5 266.999 443.8 267.099 445.2 266.999V268.399H427V266.899H427.8C429.7 266.899 430.9 266.399 431.6 265.499C432.3 264.599 432.6 262.699 432.6 260.099V246.499C432.7 243.799 432.6 241.099 432.3 238.499C432.2 237.799 431.9 236.999 431.4 236.499C430.9 236.099 430.3 235.899 429.7 235.999C428.8 235.999 427.9 236.199 427 236.599L426.4 235.199L437.4 230.699H439.1L439.2 238.599Z" fill="#6D6E71"/>
<path d="M480.8 219.901V231.901H489.4V234.701H480.8V258.501C480.8 260.901 481.1 262.501 481.8 263.301C482.4 264.101 483.4 264.601 484.4 264.501C485.3 264.501 486.2 264.201 487 263.701C487.9 263.101 488.5 262.301 488.9 261.301H490.5C489.8 263.601 488.4 265.701 486.5 267.201C485 268.401 483.1 269.201 481.2 269.201C479.9 269.201 478.7 268.801 477.6 268.201C476.4 267.501 475.5 266.501 475 265.301C474.3 263.401 474.1 261.401 474.2 259.401V234.701H468.4V233.401C470.1 232.701 471.6 231.701 472.9 230.401C474.5 228.901 475.9 227.201 477 225.401C478 223.601 478.8 221.701 479.6 219.801L480.8 219.901Z" fill="#6D6E71"/>
<path d="M504.4 230.799V238.999C507.5 233.499 510.6 230.799 513.9 230.799C515.2 230.799 516.5 231.199 517.5 232.099C518.4 232.899 518.9 233.999 518.9 235.199C518.9 236.199 518.6 237.099 517.9 237.799C517.3 238.499 516.4 238.899 515.4 238.899C514.2 238.799 513.1 238.299 512.3 237.499C511.6 236.799 510.7 236.299 509.7 236.099C509.1 236.199 508.5 236.399 508.1 236.899C506.6 238.499 505.3 240.299 504.4 242.299V259.999C504.3 261.599 504.6 263.099 505.2 264.599C505.6 265.399 506.3 265.999 507 266.399C508.2 266.899 509.5 267.199 510.8 267.099V268.499H492V267.099C493.4 267.199 494.9 266.899 496.2 266.199C496.9 265.699 497.4 264.999 497.6 264.199C497.8 262.899 497.9 261.599 497.8 260.299V245.999C497.9 243.499 497.8 240.899 497.5 238.399C497.4 237.699 497 237.099 496.5 236.599C496 236.199 495.4 235.999 494.8 235.999C493.8 235.999 492.9 236.199 492 236.599L491.6 235.199L502.7 230.699H504.4V230.799Z" fill="#6D6E71"/>
<path d="M527.8 245.7C527.8 251.1 529.1 255.4 531.8 258.5C534.1 261.4 537.5 263.1 541.2 263.1C543.5 263.1 545.7 262.4 547.5 261.1C549.3 259.8 550.8 257.5 552 254.3L553.2 255.1C552.6 258.8 550.9 262.3 548.3 265.1C545.8 268 542 269.7 538.2 269.6C533.9 269.6 529.7 267.8 526.9 264.5C523.8 261.1 522.2 256.5 522.2 250.7C522.2 244.4 523.8 239.5 527 236C530.1 232.6 534.5 230.6 539.1 230.7C542.9 230.6 546.6 232.1 549.2 234.8C551.9 237.5 553.2 241.1 553.2 245.7H527.8ZM527.8 243.4H544.8C544.8 241.7 544.5 240 544 238.4C543.4 237 542.3 235.7 541 234.9C539.8 234.1 538.3 233.6 536.9 233.6C534.6 233.6 532.5 234.5 530.9 236.2C528.9 238.1 527.9 240.7 527.8 243.4Z" fill="#6D6E71"/>
</svg>
